<?xml version="1.0" encoding="utf-8"?>
<svg viewBox="16.14 49.0865 416.789 387.1458" xmlns="http://www.w3.org/2000/svg">
  <path style="fill:#FCB883;" d="M 127.669 223.44 C 127.669 223.44 126.301 252.072 121.437 258.435 C 116.572 264.797 91.014 269.998 91.014 269.998 C 151.377 317.416 159.897 322.144 222.623 269.998 C 222.623 269.998 194.057 264.797 189.192 258.435 C 184.325 252.072 182.96 223.44 182.96 223.44 L 155.315 218.348 L 127.669 223.44 Z" transform="matrix(0.9999999999999999, 0, 0, 0.9999999999999999, -7.105427357601002e-15, 0)"/>
  <path style="fill:#FFD0A1;" d="M 153.27 108.713 L 119.395 90.407 L 103.819 104.038 L 100.703 133.242 L 99.048 148.036 C 99.048 148.036 91.645 139.372 88.242 142.393 C 84.832 145.407 85.224 168.867 91.65 175.876 C 98.075 182.882 98.85 180.743 98.85 180.743 C 98.85 180.743 104.106 207.995 118.322 225.712 C 132.535 243.43 143.434 252.968 148.69 253.939 C 153.95 254.911 155.311 253.744 155.311 253.744 C 155.311 253.744 156.674 254.912 161.929 253.939 C 167.19 252.967 178.091 243.43 192.301 225.712 C 206.519 207.995 211.771 180.743 211.771 180.743 C 211.771 180.743 212.547 182.882 218.972 175.876 C 225.396 168.866 225.788 145.407 222.377 142.393 C 218.972 139.373 211.577 148.036 211.577 148.036 L 209.918 133.242 L 206.802 104.038 L 191.23 90.407 L 157.353 108.713 L 155.312 109.138 L 153.27 108.713 Z" transform="matrix(0.9999999999999999, 0, 0, 0.9999999999999999, -7.105427357601002e-15, 0)"/>
  <path style="fill: rgb(219, 88, 88);" d="M 108.722 263.242 L 81.183 265.612 C 81.183 265.612 33.021 259.475 23.11 301.496 C 20.669 311.852 19.646 320.552 16.14 330.496 C 57.386 389.876 135.976 435.843 221.638 436.23 C 231.461 436.275 241.149 435.665 250.688 434.602 L 250.688 378.448 L 266.738 411.495 L 320.56 387.893 C 320.56 387.893 297.424 343.516 287.511 301.496 C 277.596 259.471 229.44 265.612 229.44 265.612 L 201.899 263.242 C 199.836 283.01 179.772 298.504 155.31 298.504 C 130.849 298.504 110.784 283.01 108.722 263.242 Z" transform="matrix(0.9999999999999999, 0, 0, 0.9999999999999999, -7.105427357601002e-15, 0)"/>
  <path style="fill:#817C85;" d="M 108.722 263.242 L 97.051 264.251 C 100.485 289.339 125.263 308.787 155.31 308.787 C 185.36 308.787 210.136 289.339 213.568 264.251 L 201.9 263.242 C 199.837 283.007 179.773 298.503 155.311 298.503 C 130.849 298.503 110.784 283.007 108.722 263.242 Z" transform="matrix(0.9999999999999999, 0, 0, 0.9999999999999999, -7.105427357601002e-15, 0)"/>
  <path style="fill:#D6D6D6;" d="M 261.128 399.947 L 266.74 411.496 L 320.558 387.893 C 320.558 387.893 318.047 383.065 314.321 375.103 L 261.128 399.947 Z" transform="matrix(0.9999999999999999, 0, 0, 0.9999999999999999, -7.105427357601002e-15, 0)"/>
  <g transform="matrix(0.9999999999999999, 0, 0, 0.9999999999999999, -32.57807922363281, -75.76762390136719)">
    <path style="fill:#58515E;" d="M229.915,188.025c0,0,0.9,16.822,6.992,22.052c6.089,5.231,3.88,27.463,3.88,27.463l3.893-2.726 c0,0,0.057-11.797,2.589-14.131c2.531-2.334,4.57-2.917,4.57-2.917c0.609-17.774,9.221-40.116,4.754-51.497 c-26.279-66.994-134.386-37.12-135.063,1.14c-0.194,10.895,2.347,51.731,2.347,51.731s5.255,5.059,5.837,11.095 c0.585,6.037,0.39,8.179,0.39,8.179l5.255-0.78c0,0-4.085-18.301,0.388-22.779c4.476-4.476-2.307-24.332,7.437-22.01l47.714,11.381 L229.915,188.025z"/>
    <polygon style="fill:#58515E;" points="302.1,188.2 303.013,262.228 322.663,324.832 333.173,349.965 401.26,355.447 &#10;&#9;&#9;405.832,315.693 423.652,259.943 432.792,204.192 366.074,154.383 &#9;"/>
  </g>
  <path style="fill: rgb(230, 184, 79);" d="M 303.919 255.602 L 330.934 255.602 L 357.95 255.602 C 357.95 255.602 417.789 281.417 422.388 284.419 C 426.988 287.42 429.392 297.024 429.392 297.024 L 432.929 327.422 C 395.795 379.383 339.972 417.064 275.282 430.664 C 276.201 420.234 275.093 408.968 269.646 396.317 L 266.129 432.414 C 252.772 434.724 239.062 436.002 225.089 436.186 L 232.477 297.024 C 232.477 297.024 234.88 287.42 239.481 284.419 C 244.083 281.418 303.919 255.602 303.919 255.602 Z" transform="matrix(0.9999999999999999, 0, 0, 0.9999999999999999, -7.105427357601002e-15, 0)"/>
  <path style="fill:#FCB883;" d="M 358.182 217.209 L 360.35 252.589 C 362.573 288.903 298.888 288.904 301.114 252.589 L 303.399 215.261 C 313.787 226.171 321.716 232.07 325.815 232.748 C 326.965 232.938 336.501 232.938 337.652 232.748 C 341.496 232.111 348.722 226.875 358.182 217.209 Z" transform="matrix(0.9999999999999999, 0, 0, 0.9999999999999999, -7.105427357601002e-15, 0)"/>
  <path style="fill:#FFD0A1;" d="M 272.509 133.207 L 271.029 145.066 C 271.029 145.066 264.416 138.12 261.369 140.539 C 258.322 142.955 258.673 161.759 264.416 167.379 C 270.161 172.996 270.856 171.277 270.856 171.277 C 270.856 171.277 279.801 185.873 289.711 199.069 C 292.678 203.019 295.737 206.851 298.662 210.121 C 305.144 217.367 319.867 235.456 332.004 235.456 C 343.94 235.456 358.436 217.236 364.801 210.121 C 377.506 195.923 390.605 170.476 390.605 170.476 C 390.605 170.476 391.304 172.196 397.045 166.577 C 402.787 160.96 403.139 142.155 400.092 139.74 C 397.045 137.322 390.433 144.265 390.433 144.265 L 380.551 136.009 L 377.766 112.604 C 372.519 108.489 318.351 83.078 290.159 101.48 C 285.973 104.214 274.921 129.442 272.509 133.207 Z" transform="matrix(0.9999999999999999, 0, 0, 0.9999999999999999, -7.105427357601002e-15, 0)"/>
  <path style="fill:#58515E;" d="M 296.323 109.498 C 304.015 117.573 321.601 134.422 338.733 139.529 C 361.551 146.333 380.36 147.134 380.36 147.134 C 380.36 147.134 382.768 165.867 379.967 189.082 C 377.166 212.297 375.159 214.772 375.159 214.772 L 364.355 237.382 C 364.355 237.382 351.542 253.388 353.946 278.602 C 356.349 303.815 383.962 315.026 380.761 331.434 C 377.558 347.842 366.752 358.05 366.752 358.05 C 366.752 358.05 405.572 344.44 403.571 312.021 C 401.572 279.603 381.359 244.38 381.359 244.38 C 381.359 244.38 376.357 221.167 391.567 202.358 C 406.777 183.549 416.78 103.5 396.368 79.886 C 375.957 56.274 324.324 43.468 304.314 51.472 C 284.302 59.473 281.1 70.683 281.1 70.683 L 281.353 71.454 C 276.776 73.814 271.909 76.845 266.693 80.686 C 230.27 107.498 253.08 183.548 268.288 202.357 C 283.499 221.167 278.497 244.379 278.497 244.379 C 278.497 244.379 258.286 279.602 256.288 312.02 C 254.286 344.44 293.103 358.049 293.103 358.049 C 293.103 358.049 282.301 347.841 279.098 331.433 C 275.895 315.025 303.511 303.815 305.913 278.601 C 308.313 253.386 295.504 237.381 295.504 237.381 C 283.644 212.568 279.122 196.776 278.704 183.732 C 277.983 161.427 286.097 130.238 296.323 109.498 Z" transform="matrix(0.9999999999999999, 0, 0, 0.9999999999999999, -7.105427357601002e-15, 0)"/>
  <g transform="matrix(0.9999999999999999, 0, 0, 0.9999999999999999, -32.57807922363281, -75.76762390136719)">
    <path style="fill:#F8F8F8;" d="M308.93,297.839l10.721-4.011c2.563-0.958,5.44,0.355,6.399,2.915l0.001,0.004 c0.957,2.562-0.354,5.44-2.917,6.398l-10.721,4.009c-2.562,0.958-5.44-0.354-6.399-2.915l-0.002-0.002 C305.057,301.676,306.369,298.797,308.93,297.839z"/>
    <path style="fill:#F8F8F8;" d="M417.369,295.553l-10.721-4.009c-2.562-0.958-5.44,0.353-6.398,2.915l-0.002,0.002 c-0.957,2.561,0.354,5.44,2.917,6.398l10.721,4.01c2.561,0.959,5.442-0.355,6.398-2.915l0.002-0.004 C421.242,299.389,419.93,296.511,417.369,295.553z"/>
  </g>
</svg>