<?xml version="1.0" encoding="utf-8"?>
<svg viewBox="156.2919 168.465 104.3588 119.88" xmlns="http://www.w3.org/2000/svg">
  <radialGradient id="IconifyId17ecdb2904d178eab21463" cx="64.434" cy="46.481" r="64.666" gradientTransform="matrix(1, 0, 0, -1.2135, 144.472488, 302.273315)" gradientUnits="userSpaceOnUse">
    <stop offset="0.794" stop-color="#6d4c41" stop-opacity="0"/>
    <stop offset="1" stop-color="#6d4c41"/>
  </radialGradient>
  <radialGradient id="IconifyId17ecdb2904d178eab21464" cx="64.001" cy="51.437" r="61.833" gradientTransform="matrix(1, 0, 0, -1.1901, 144.472488, 302.120316)" gradientUnits="userSpaceOnUse">
    <stop offset="0.794" stop-color="#6d4c41" stop-opacity="0"/>
    <stop offset="1" stop-color="#6d4c41"/>
  </radialGradient>
  <path d="M 209.212 168.465 C 155.952 168.465 156.372 217.715 156.372 218.495 C 156.372 239.935 157.482 267.315 162.082 288.345 L 254.872 288.345 C 259.472 267.305 260.572 239.935 260.572 218.505 C 260.562 217.715 262.472 168.465 209.212 168.465 L 209.212 168.465 Z" fill="#543930" transform="matrix(0.9999999999999999, 0, 0, 0.9999999999999999, -7.105427357601002e-15, 0)"/>
  <path d="M 208.472 183.945 C 186.132 183.945 165.442 200.555 165.442 235.785 C 165.442 264.075 182.962 280.815 198.212 286.215 C 201.852 287.505 205.362 288.155 208.472 288.155 C 211.562 288.155 215.052 287.515 218.672 286.245 C 233.942 280.875 251.502 264.125 251.502 235.795 C 251.502 200.555 230.812 183.945 208.472 183.945 Z" fill="#ffca28" transform="matrix(0.9999999999999999, 0, 0, 0.9999999999999999, -7.105427357601002e-15, 0)"/>
  <path d="M 163.422 285.255 C 164.022 286.485 164.672 287.495 165.332 288.345 L 172.452 288.345 C 171.742 278.585 170.072 254.685 169.832 241.975 C 169.762 238.185 168.612 224.145 176.532 222.375 C 205.572 215.845 222.002 200.445 222.002 200.445 C 226.272 209.775 239.632 218.875 244.432 222.335 C 248.372 225.175 247.822 236.875 247.742 241.855 L 244.112 288.345 L 251.752 288.345 C 252.432 287.495 253.102 286.485 253.712 285.255 C 257.562 277.435 257.682 218.505 257.682 218.505 C 257.682 218.505 259.002 172.305 208.572 172.305 C 158.142 172.305 159.262 218.505 159.262 218.505 C 159.262 218.505 159.692 277.575 163.422 285.255 L 163.422 285.255 Z" fill="#543930" transform="matrix(0.9999999999999999, 0, 0, 0.9999999999999999, -7.105427357601002e-15, 0)"/>
  <path d="M 209.212 168.465 C 155.952 168.465 156.372 217.715 156.372 218.495 C 156.372 228.575 156.612 239.955 157.352 251.385 L 166.082 251.365 C 166.012 247.575 168.662 224.135 176.582 222.355 C 205.622 215.825 222.052 200.425 222.052 200.425 C 226.322 209.755 239.682 218.855 244.482 222.315 C 248.422 225.155 250.032 246.405 249.952 251.385 L 259.562 251.385 L 259.592 251.185 C 260.312 239.825 260.562 228.505 260.562 218.495 C 260.562 217.715 262.472 168.465 209.212 168.465 L 209.212 168.465 Z" fill="url(#IconifyId17ecdb2904d178eab21463)" transform="matrix(0.9999999999999999, 0, 0, 0.9999999999999999, -7.105427357601002e-15, 0)"/>
  <path d="M 213.422 251.505 C 213.282 251.445 213.152 251.415 213.012 251.395 L 203.932 251.395 C 203.792 251.415 203.652 251.445 203.522 251.505 C 202.702 251.835 202.242 252.695 202.632 253.595 C 203.022 254.505 204.832 257.055 208.472 257.055 C 212.112 257.055 213.922 254.505 214.312 253.595 C 214.702 252.685 214.242 251.835 213.422 251.505 L 213.422 251.505 Z" fill="#e59600" transform="matrix(0.9999999999999999, 0, 0, 0.9999999999999999, -7.105427357601002e-15, 0)"/>
  <g fill="#404040" transform="matrix(0.9999999999999999, 0, 0, 0.9999999999999999, 144.47248840332028, 164.34532165527344)">
    <ellipse cx="42.9" cy="75.23" rx="6.32" ry="6.55"/>
    <ellipse cx="85.1" cy="75.23" rx="6.32" ry="6.55"/>
  </g>
  <g fill="#6d4c41" transform="matrix(0.9999999999999999, 0, 0, 0.9999999999999999, 144.47248840332028, 164.34532165527344)">
    <path d="M52.29 63.47c-1.2-1.59-3.99-3.91-9.39-3.91s-8.19 2.32-9.39 3.91c-.53.71-.4 1.52-.03 2.01c.34.46 1.35.88 2.47.5s3.3-1.51 6.95-1.53c3.65.03 5.84 1.15 6.95 1.53c1.12.38 2.13-.04 2.47-.5c.37-.49.5-1.3-.03-2.01z"/>
    <path d="M94.5 63.47c-1.2-1.59-3.99-3.91-9.39-3.91s-8.19 2.32-9.39 3.91c-.53.71-.4 1.52-.03 2.01c.34.46 1.35.88 2.47.5s3.3-1.51 6.95-1.53c3.65.03 5.84 1.15 6.95 1.53c1.12.38 2.13-.04 2.47-.5c.36-.49.5-1.3-.03-2.01z"/>
  </g>
  <path d="M 219.272 262.005 C 215.182 264.435 201.782 264.435 197.692 262.005 C 195.342 260.605 192.942 262.745 193.922 264.875 C 194.882 266.975 202.192 271.835 208.512 271.835 C 214.832 271.835 222.052 266.975 223.012 264.875 C 223.992 262.735 221.622 260.605 219.272 262.005 Z" fill="#795548" transform="matrix(0.9999999999999999, 0, 0, 0.9999999999999999, -7.105427357601002e-15, 0)"/>
  <path d="M 255.022 288.255 C 259.552 267.245 260.642 240.055 260.642 218.735 C 260.642 217.955 262.562 168.625 209.212 168.625 C 155.862 168.625 156.292 217.955 156.292 218.735 C 156.292 240.055 157.382 267.245 161.912 288.255 L 255.022 288.255 Z" fill="url(#IconifyId17ecdb2904d178eab21464)" transform="matrix(0.9999999999999999, 0, 0, 0.9999999999999999, -7.105427357601002e-15, 0)"/>
</svg>