<?xml version="1.0" encoding="utf-8"?>
<svg viewBox="174.59 199.9444 76.07 98.4506" xmlns="http://www.w3.org/2000/svg">
  <path d="M 212.63 280.245 L 203.55 280.245 L 203.55 290.225 C 203.55 294.735 207.25 298.395 211.81 298.395 L 213.46 298.395 C 218.02 298.395 221.72 294.735 221.72 290.225 L 221.72 280.245 L 212.63 280.245 Z" fill="#e59600" transform="matrix(0.9999999999999999, 0, 0, 0.9999999999999999, -7.105427357601002e-15, 0)"/>
  <path d="M 239.96 246.345 L 185.3 246.345 C 179.41 246.345 174.59 251.485 174.59 257.755 C 174.59 264.025 179.41 269.165 185.3 269.165 L 239.95 269.165 C 245.84 269.165 250.66 264.025 250.66 257.755 C 250.66 251.485 245.85 246.345 239.96 246.345 Z" fill="#e59600" transform="matrix(0.9999999999999999, 0, 0, 0.9999999999999999, -7.105427357601002e-15, 0)"/>
  <path d="M 212.63 206.985 C 195.23 206.985 179.11 225.595 179.11 252.385 C 179.11 279.025 195.72 292.195 212.63 292.195 C 229.54 292.195 246.15 279.015 246.15 252.375 C 246.15 225.595 230.03 206.985 212.63 206.985 Z" fill="#ffca28" transform="matrix(0.9999999999999999, 0, 0, 0.9999999999999999, -7.105427357601002e-15, 0)"/>
  <g fill="#404040" transform="matrix(0.9999999999999999, 0, 0, 0.9999999999999999, 148.62858581542966, 195.9144287109375)">
    <ellipse cx="47.56" cy="58.81" rx="4.93" ry="5.1"/>
    <ellipse cx="80.44" cy="58.81" rx="4.93" ry="5.1"/>
  </g>
  <path d="M 216.49 263.975 C 216.38 263.935 216.28 263.905 216.17 263.895 L 209.09 263.895 C 208.98 263.905 208.87 263.935 208.77 263.975 C 208.13 264.235 207.78 264.895 208.08 265.605 C 208.38 266.315 209.79 268.295 212.63 268.295 C 215.47 268.295 216.88 266.305 217.18 265.605 C 217.48 264.895 217.13 264.235 216.49 263.975 Z" fill="#e59600" transform="matrix(0.9999999999999999, 0, 0, 0.9999999999999999, -7.105427357601002e-15, 0)"/>
  <path d="M 221.05 272.055 C 217.87 273.945 207.42 273.945 204.24 272.055 C 202.41 270.965 200.54 272.635 201.3 274.295 C 202.05 275.925 207.74 279.715 212.67 279.715 C 217.6 279.715 223.22 275.925 223.97 274.295 C 224.72 272.635 222.88 270.965 221.05 272.055 Z" fill="#795548" transform="matrix(0.9999999999999999, 0, 0, 0.9999999999999999, -7.105427357601002e-15, 0)"/>
  <g transform="matrix(0.9999999999999999, 0, 0, 0.9999999999999999, 148.62858581542966, 195.9144287109375)">
    <path d="M64 4.03h-.04c-45.43.24-36.12 52.14-36.12 52.14s2.04 5.35 2.97 7.71c.13.34.63.3.71-.05c.97-4.34 4.46-19.73 6.22-24.41a6.075 6.075 0 0 1 6.79-3.83c4.45.81 11.55 1.81 19.37 1.81h.16c7.82 0 14.92-1 19.37-1.81c2.9-.53 5.76 1.08 6.79 3.83c1.75 4.66 5.22 19.96 6.2 24.36c.08.36.58.39.71.05l2.98-7.67c.02.01 9.33-51.89-36.11-52.13z" fill="#543930"/>
    <radialGradient id="IconifyId17ecdb2904d178eab12353" cx="63.983" cy="80.901" r="38.093" gradientTransform="matrix(1 0 0 -1.1282 0 138.37)" gradientUnits="userSpaceOnUse">
      <stop offset="0.794" stop-color="#6d4c41" stop-opacity="0"/>
      <stop offset="1" stop-color="#6d4c41"/>
    </radialGradient>
    <path d="M100.13 56.17S109.44 4.27 64 4.03h-.04c-.71 0-1.4.02-2.08.05c-1.35.06-2.66.16-3.92.31h-.04c-.09.01-.17.03-.26.04c-38.24 4.81-29.82 51.74-29.82 51.74l2.98 7.68c.13.34.62.31.7-.05c.98-4.39 4.46-19.71 6.22-24.37a6.075 6.075 0 0 1 6.79-3.83c4.45.81 11.55 1.81 19.37 1.81h.16c7.82 0 14.92-1 19.37-1.81c2.9-.53 5.76 1.08 6.79 3.83c1.76 4.68 5.25 20.1 6.21 24.42c.08.36.57.39.7.05c.95-2.36 3-7.73 3-7.73z" fill="url(#IconifyId17ecdb2904d178eab12353)"/>
  </g>
  <g fill="#6d4c41" transform="matrix(0.9999999999999999, 0, 0, 0.9999999999999999, 148.62858581542966, 195.9144287109375)">
    <path d="M40.01 50.72c2.99-4.23 9.78-4.63 13.67-1.48c.62.5 1.44 1.2 1.68 1.98c.4 1.27-.82 2.26-2.01 1.96c-.76-.19-1.47-.6-2.22-.83c-1.37-.43-2.36-.55-3.59-.55c-1.82-.01-2.99.22-4.72.92c-.71.29-1.29.75-2.1.41c-.93-.38-1.28-1.57-.71-2.41z"/>
    <path d="M86.07 53.13c-.29-.13-.57-.29-.86-.41c-1.78-.74-2.79-.93-4.72-.92c-1.7.01-2.71.24-4.04.69c-.81.28-1.84.98-2.74.71c-1.32-.4-1.28-1.84-.56-2.76c.86-1.08 2.04-1.9 3.29-2.44c2.9-1.26 6.44-1.08 9.17.55c.89.53 1.86 1.26 2.4 2.18c.78 1.3-.4 3.03-1.94 2.4z"/>
  </g>
</svg>